<?xml version="1.0" encoding="UTF-8" standalone="no"?>
<svg width="100%" height="100%" viewBox="0 0 48 20" version="1.1" xmlns="http://www.w3.org/2000/svg" xmlns:xlink="http://www.w3.org/1999/xlink">
  <g class="svg-bg" style="fill-rule:evenodd;">
    <g class="svg-fill">
      <g class="left">
        <circle cx="8" cy="5" r="4"/>
        <circle cx="8" cy="15" r="4"/>
        <polygon points="15,2 16,0 17,2" transform="rotate(180 16 1)" class="top"/>
        <polygon points="1,9 2,11 0,11" transform="rotate(90 1 10)"/>
        <polygon points="16,18 17,20 15,20" class="bottom"/>
      </g>
      <ellipse cx="24" cy="10" rx="4" ry="8"/>
      <g transform="translate(31 0)" class="right">
        <circle cx="9" cy="5" r="4"/>
        <circle cx="9" cy="15" r="4"/>
        <polygon points="1,0 2,2 0,2" transform="rotate(180 1 1)" class="top"/>
        <polygon points="16,9 17,11 15,11" transform="rotate(270 16 10)"/>
        <polygon points="1,18 2,20 0,20" class="bottom"/>
      </g>
    </g>
  </g>
</svg>
