<svg viewBox="0 0 972.667 147.051" height="30" fill="currentColor" data-reactid=".0.0.4.0">
  <g class="svg-fill">
    <path d="M569.275 5.75v131.156c.02.007.035 5.72 5.742 5.72h15.68c5.714-.007 5.692-5.7 5.692-5.7l.02-131.184c0-.014-.006-5.72-5.713-5.72h-15.68c-5.72.014-5.72 5.706-5.742 5.727M632.877 112.576c.107 3.143 2.012 6.71 5.04 8.692 14.392 9.452 52.01 5.743 52.11-21.716.008-2.062-2.126-3.15-3.622-3.344-2.93-.393-34.776-1.066-47.686 5.743-4.325 2.278-5.98 5.994-5.843 10.626 0 0-25.64.093-25.64 0-.1-14.62 11.005-28.676 25.568-30.98 10.053-1.598 16.318-2.95 53.2-4.84 2.44-.123 6.758-4.84 3.586-9.374-4.96-7.06-9.007-10.49-24.322-10.49-13.84 0-21.23 2.83-25.804 10.483-.874 1.468-3.888 4.003-6.902 4.003l-17.542-.05c-2.07 0-4.454-2.442-3.63-4.447 8.205-19.796 25.024-29.54 50.75-29.57 23.004-.007 53.026 8.514 53.026 40.598l-.03 59.02c.03-.015 0 5.7-5.684 5.7h-9.35c-4.576-.01-6.66-1.11-8.148-5.722-.573-1.826-2.678-3.136-4.497-1.54-14.964 13.024-47.82 16.082-65.514 3.537-10.217-7.238-14.706-16.74-14.706-26.327 0 0 25.64-.028 25.64 0M840.415 136.906V79.09c.008-25.884-22.826-41.744-39.5-41.744-16.562 0-30.646 4.304-41.507 13.06-.953.766-3.674 1.618-3.674-.766l-.035-5.936s-.016-5.706-5.708-5.7h-13.51s-5.73-.006-5.73 5.672l-.013 93.25c.013 5.7 5.727 5.708 5.727 5.708l13.54-.015c5.677 0 5.677-5.707 5.656-5.714l.02-45.566c0-12.588 8.515-34.09 36.553-34.09 20.026 0 23.227 13.755 23.227 21.825l.02 57.852c.016 5.7 5.715 5.678 5.715 5.678l13.54.022s5.7 0 5.677-5.72M495.685 147.05c45.58 0 64.69-29.476 64.654-54.45-.037-23.93-19.19-54.516-65.05-54.516-45.78-.014-64.926 30.5-64.926 54.523 0 25.468 19.332 54.444 65.32 54.444v-19.51c-26.65 0-38.857-19.704-38.857-34.775 0-15.1 12.774-35.034 38.485-35.034 25.72 0 38.557 19.812 38.557 34.89 0 15.26-12.574 34.92-38.185 34.92M877.375 91.612c0 20.17 14.893 35.442 34.432 35.442 19.52-.008 35.32-13.748 35.263-35.156-.036-20.75-15.787-34.11-35.313-34.11-18.2 0-34.396 13.92-34.382 33.824L851.7 91.59c-.086-41.656 55.883-69.795 92.685-41.67 1.683 1.267 3.272.257 3.315-2.743l-.028-41.42c.043-5.736 5.763-5.72 5.763-5.72h13.533s5.7 0 5.7 5.698v131.17c0 5.722-5.686 5.714-5.686 5.714l-13.547.007c-5.706 0-5.72-5.714-5.72-6.144.02-2.993-1.683-4.045-3.33-2.756-37.382 29.542-92.57 4.44-92.685-42.137M326.545 78.445l.007-18.91c.315 0-5.707 0-5.707-5.706-.02-6.99 0-29.236 0-29.236s0-5.7 5.707-5.7h50.614s22.267.037 22.274 20.32c.015 20.357-22.274 20.32-22.274 20.307l-50.614.015V78.43h42.408c7.504 0 13.898 1.683 16.805 5.714 12.35 17.127 8.262 34.654 14.19 52.712 1.046 3.186 4.003 5.728 9.423 5.728l16.547-.022c1.547 0 2.714-2.098 2.248-3.086-6.83-14.463-7.36-29.513-11.864-46.77-2.493-9.572-2.57-14.11-9.653-19.667-.386-.31.25-1.397 1.09-1.977 10.316-7.232 17.684-18.996 17.684-31.848C425.43 12.93 404.016-.007 385.27 0l-82.976.02s-5.707 0-5.707 5.687l-.014 131.15c.036 5.77 5.764 5.72 5.764 5.72l12.802-.015s5.712.014 5.712-5.706c0-9.316-.043-39.488-.02-52.72.013-5.706 5.713-5.69 5.713-5.69M0 .258v141.968h11.356V10.754h220.627c19.59 0 34.92 16.397 34.92 35.134 0 18.738-14.478 34.726-34.92 34.726H73.826v34.633H277.7v-10.51H85.18V91.11H232.27c26.978 0 45.322-21.014 45.322-45.322 0-24.315-18.28-45.43-45.43-45.43S0 .258 0 .258" data-reactid=".0.0.4.0.0"></path>
    <path d="M133.827 27.867V38.37h-94.64v50.184s7.668-36 43.87-36h148.08V38.37h-97.31V27.867h108.667v35.205H84.33c-19.017 0-34.29 14.62-34.29 34.497 0 19.875 14.42 34.152 34.57 34.152H277.7v10.504H84.33c-25.554 0-40.747-16.54-45.144-35.858v35.858H27.824V27.866" data-reactid=".0.0.4.0.1"></path>
  </g>
</svg>
